<?xml version="1.0" encoding="UTF-8"?>
<svg id="Layer_6" data-name="Layer 6" xmlns="http://www.w3.org/2000/svg" viewBox="0 0 852 391">
  <defs>
    <style>
      .cls-1 {
        fill: #fff;
        stroke-width: 0px;
      }
    </style>
  </defs>
  <g>
    <path class="cls-1" d="M359.26,246.78c-14.74,0-29.65-4.18-41.04-9.86l2.68-17.22c10.39,5.85,23.62,11.2,38.7,11.2,12.06,0,22.45-4.01,22.45-15.21,0-23.9-61.14-20.89-61.14-60.68,0-20.73,18.93-29.25,39.53-29.25,12.23,0,25.13,2.67,35.01,6.35l-3.02,15.88c-6.7-2.84-19.93-6.35-31.83-6.35s-22.95,2.51-22.95,13.71c0,24.41,61.14,21.4,61.14,60.85,0,22.4-18.93,30.59-39.53,30.59Z"/>
    <path class="cls-1" d="M474.85,240.26c-8.21,4.85-15.91,6.52-24.46,6.52-22.11,0-37.36-13.21-37.36-36.27v-11.87c0-23.24,14.24-37.78,39.2-37.78,6.7,0,13.74,1.5,20.94,4.35l-1.84,15.38c-6.03-2.51-12.23-3.84-18.09-3.84-12.9,0-23.45,6.69-23.45,22.07v10.53c0,14.88,9.55,21.56,20.6,21.56,8.04,0,15.91-2.51,22.45-7.02l2.01,16.38Z"/>
    <path class="cls-1" d="M487.75,207.49v-7.35c0-20.9,10.55-39.28,37.86-39.28s37.86,18.39,37.86,39.28v7.35c0,20.9-10.55,39.28-37.86,39.28s-37.86-18.39-37.86-39.28ZM546.38,206.83v-6.02c0-13.87-6.87-24.07-20.77-24.07s-20.77,10.2-20.77,24.07v6.02c0,13.88,6.87,24.07,20.77,24.07s20.77-10.2,20.77-24.07Z"/>
    <path class="cls-1" d="M602.33,222.87c0,6.02,2.85,8.02,6.37,8.02,2.85,0,6.03-1.17,8.88-2.84l1,15.21c-4.19,2.17-8.38,3.51-12.9,3.51-12.23,0-20.1-7.69-20.1-23.57v-45.3h-9.04v-15.88h9.04v-21.73l16.75-3.34v25.07h16.75v15.88h-16.75v44.97Z"/>
    <path class="cls-1" d="M656.6,222.87c0,6.02,2.85,8.02,6.37,8.02,2.85,0,6.03-1.17,8.88-2.84l1,15.21c-4.19,2.17-8.38,3.51-12.9,3.51-12.23,0-20.1-7.69-20.1-23.57v-45.3h-9.04v-15.88h9.04v-21.73l16.75-3.34v25.07h16.75v15.88h-16.75v44.97Z"/>
    <path class="cls-1" d="M714.73,246.11l-32.67-84.08h18.26l22.45,62.85,24.29-62.85h18.09l-39.53,100.3c-4.86,12.54-12.73,17.89-25.13,17.89-5.19,0-10.72-1.34-16.08-3.68l1.67-17.05c4.02,2.67,9.21,4.85,13.74,4.85s8.71-2.01,10.89-7.69l4.02-10.53Z"/>
  </g>
  <g>
    <path class="cls-1" d="M238.38,138.65c-.67-8-8.67-8-8.67-8,0,0-8,0-8.67,8v5.33h17.34v-5.33Z"/>
    <path class="cls-1" d="M190.01,80.1c-57.44,0-104,46.56-104,104s46.56,104,104,104,104-46.56,104-104-46.56-104-104-104ZM166.07,243.03c0,1.19-.96,2.15-2.15,2.15h-28.72c-1.19,0-2.15-.96-2.15-2.15v-113.74c0-1.19.96-2.15,2.15-2.15h28.72c1.19,0,2.15.96,2.15,2.15v113.74ZM206.52,243.03c0,1.19-.96,2.15-2.15,2.15h-28.72c-1.19,0-2.15-.96-2.15-2.15v-113.74c0-1.19.96-2.15,2.15-2.15h28.72c1.19,0,2.15.96,2.15,2.15v113.74ZM213.61,146.14c0-1.19.96-2.15,2.15-2.15h2.8v-6.22c.86-10.29,11.14-10.29,11.14-10.29,0,0,10.29,0,11.14,10.29v6.22h3.63c1.19,0,2.15.96,2.15,2.15v23.77c0,1.19-.96,2.15-2.15,2.15h-28.72c-1.19,0-2.15-.96-2.15-2.15v-23.77ZM246.96,243.03c0,1.19-.96,2.15-2.15,2.15h-28.72c-1.19,0-2.15-.96-2.15-2.15v-61.74c0-1.19.96-2.15,2.15-2.15h28.72c1.19,0,2.15.96,2.15,2.15v61.74Z"/>
  </g>
</svg>